<?xml version="1.0" encoding="UTF-8"?>
<svg id="Layer_1" data-name="Layer 1" xmlns="http://www.w3.org/2000/svg" viewBox="0 0 1259.85 673.29">
  <defs>
    <style>
      .cls-1 {
        fill: #ed1c24;
      }
    </style>
  </defs>
  <g>
    <g>
      <path d="m23.99,491.4s.02-.01.03-.02c12.9-10.51,26.44-21.29,40.6-32.29v-164.84h61.2c45.81,1.52,72.35,18.13,88.85,58.11,17.03-11.06,34.61-22.15,52.76-33.22-12.92-22.67-30.31-38.74-53.08-46.72v-1.82c52.38-18.07,94.37-61.8,94.37-127.58,0-39.16-14.54-73.26-39.27-95.18C238.25,19.68,193.01,6.62,124.36,6.62,79.91,6.62,32.82,10.8,0,17.4v493.82c7.63-6.4,15.53-12.93,23.67-19.56.11-.09.21-.17.32-.26ZM64.62,62.54c10.97-2.84,32.65-5.7,64.01-5.7,68.21.11,115.11,28.35,115.11,93.39,0,57.38-43.83,95.07-113.04,95.07h-66.08V62.54Z"/>
      <path class="cls-1" d="m277.92,341.42c-19.31,10-38.18,20.07-56.57,30.17,1.8,6.16,3.45,12.73,4.97,19.75,13.71,62.7,25.02,105.39,32.89,119.87h67.07c-10.18-19.57-22.03-67.44-38.5-137.42-2.72-11.61-6-22.43-9.86-32.38Z"/>
      <path class="cls-1" d="m24.01,508.32c-.11.09-.23.19-.35.28-7.89,6.52-15.78,13.04-23.67,19.56h64.62v-46.41c-13.91,8.92-27.44,17.79-40.6,26.57Z"/>
    </g>
    <path class="cls-1" d="m751.56,190.7c133.61-86.16,316.47-133.86,475.1-128.77,11.07.38,22.14,1.04,33.19,2.15-18.5,3.76-46.11,8.62-64.99,12.17-85.67,15.66-170.85,34.08-254.76,57.38-63.08,17.07-126.02,37.83-188.54,57.07h0Z"/>
    <g>
      <path class="cls-1" d="m1034.55,88.56v422.66h65.01V78.96c-21.39,2.87-43.06,6.06-65.01,9.6Z"/>
      <path d="m1223.4,10.52c-49.6-10.19-135.2-20.33-233.66,7.51-43.44,12.28-79.47,29.16-107.71,45.31,125.98-30.1,241.5-45.52,341.37-52.82Z"/>
    </g>
    <g>
      <path class="cls-1" d="m399.66,281.86v229.36h65.01V253.47c-22.12,9.3-43.79,18.77-65.01,28.38Z"/>
      <path d="m464.66,212.01V10.52h-65.01v233.73c21.09-10.91,42.76-21.67,65.01-32.24Z"/>
    </g>
    <g>
      <path d="m642.21,137.82v-73.43h204.66V10.52h-269.66v152.46c21.22-8.62,42.89-17.01,65.01-25.16Z"/>
      <path class="cls-1" d="m642.21,187.05c-22.03,7.37-43.7,14.95-65.01,22.73v301.43h65.01v-226.59h189.1v-53.53h-189.1v-44.04Z"/>
    </g>
  </g>
  <path d="m0,667.36c181.84-27.18,366.25-33.18,549.78-33.99,183.52.95,367.92,6.96,549.78,33.99,0,0,0,4,0,4-258.15,2.1-532.29,2.18-790.3,1.68-84.68-.27-224.37-.95-309.25-1.68,0,0,0-4,0-4H0Z"/>
</svg>