<?xml version="1.0" encoding="UTF-8"?>
<svg id="Layer_1" data-name="Layer 1" xmlns="http://www.w3.org/2000/svg" viewBox="0 0 1503.95 609.85">
  <defs>
    <style>
      .cls-1 {
        fill: #fff;
      }

      .cls-2 {
        fill: red;
      }
    </style>
  </defs>
  <g>
    <path class="cls-1" d="m28.32,586.45s.02-.01.03-.02c15.23-12.41,31.21-25.14,47.94-38.13v-194.63h72.26c54.08,1.8,85.43,21.41,104.91,68.61,20.1-13.06,40.87-26.16,62.29-39.22-15.25-26.77-35.79-45.74-62.67-55.16v-2.15c61.84-21.33,111.42-72.97,111.42-150.63,0-46.24-17.17-86.5-46.37-112.38C281.29,29.5,227.89,14.09,146.83,14.09,94.35,14.09,38.75,19.02,0,26.8v583.05c9.01-7.55,18.34-15.26,27.94-23.09.12-.1.25-.21.37-.31ZM76.29,80.11c12.95-3.35,38.55-6.73,75.58-6.73,80.53.13,135.91,33.47,135.91,110.27,0,67.75-51.75,112.25-133.47,112.25h-78.02V80.11Z"/>
    <path class="cls-2" d="m328.13,409.37c-22.8,11.81-45.07,23.7-66.8,35.63,2.12,7.27,4.07,15.03,5.87,23.32,16.18,74.03,29.54,124.43,38.84,141.53h79.19c-12.02-23.11-26.01-79.63-45.46-162.25-3.21-13.71-7.08-26.48-11.64-38.23Z"/>
    <path class="cls-2" d="m28.35,586.43c-.14.11-.27.22-.41.33-9.31,7.7-18.63,15.39-27.94,23.09h76.29v-54.79c-16.42,10.54-32.4,21-47.94,31.37Z"/>
  </g>
  <g>
    <path class="cls-2" d="m1221.47,110.83v499.02h76.75V99.5c-25.25,3.39-50.84,7.16-76.75,11.33Z"/>
    <path class="cls-1" d="m1444.44,18.69c-49.48-13.69-151.23-34.13-269.35,0-56.94,16.45-101.69,40.97-133.7,62.36,148.74-35.54,285.13-53.75,403.05-62.36Z"/>
  </g>
  <g>
    <path class="cls-2" d="m471.87,339.05v270.8h76.75v-304.31c-26.12,10.98-51.7,22.16-76.75,33.51Z"/>
    <path class="cls-1" d="m548.62,256.59V18.69h-76.75v275.96c24.9-12.88,50.48-25.58,76.75-38.06Z"/>
  </g>
  <g>
    <path class="cls-1" d="m758.24,168.99v-86.7h241.64V18.69h-318.39v180c25.06-10.17,50.64-20.09,76.75-29.7Z"/>
    <path class="cls-2" d="m758.24,227.12c-26.01,8.7-51.59,17.66-76.75,26.84v355.89h76.75v-267.53h223.27v-63.2h-223.27v-52Z"/>
  </g>
  <path class="cls-2" d="m938.99,205.29c137.68-87.2,328.8-136.42,491.33-136.04,24.6.16,49.16,1.11,73.63,4.13-20.37,4.96-50.82,11.05-71.68,15.43-93.3,18.94-190,39.33-281.99,62.39-67.83,16.68-143.32,37.98-211.29,54.09h0Z"/>
</svg>